<?xml version="1.0" standalone="no"?>
<!DOCTYPE svg PUBLIC "-//W3C//DTD SVG 1.1//EN" "http://www.w3.org/Graphics/SVG/1.1/DTD/svg11.dtd" >
<!--
2013-9-30: Created.
-->
<svg>
<metadata>
Created by iconfont
</metadata>
<defs>

<font id="iconfont" horiz-adv-x="1024" >
  <font-face
    font-family="iconfont"
    font-weight="500"
    font-stretch="normal"
    units-per-em="1024"
    ascent="896"
    descent="-128"
  />
    <missing-glyph />

    <glyph glyph-name="xiaoxi" unicode="&#59025;" d="M512-98.222222C479.260444-98.222222 457.699556-103.342222 426.666667-98.222222L199.111111-212 199.111111 15.555556C82.176 97.674667 0 231.733333 0 373.130667 0 620.568889 229.233778 812 512 812 794.766222 812 1024 620.568889 1024 373.130667 1024 125.720889 794.766222-98.222222 512-98.222222ZM512 726.524444C276.423111 726.524444 85.475556 575.342222 85.475556 362.634667 85.475556 232.103111 174.478222 113.660444 284.444444 44L284.444444-69.777778 398.222222-12.888889C431.274667-20.284444 476.416-12.860444 512-12.888889 747.576889-13.144889 938.524444 152.8 938.524444 365.592889 938.524444 578.300444 747.576889 726.524444 512 726.524444ZM739.953778 299.573333C708.494222 299.573333 682.979556 325.088 682.979556 356.604444 682.979556 388.120889 708.494222 413.664 739.953778 413.664 771.413333 413.664 796.928 388.120889 796.928 356.604444 796.928 325.088 771.413333 299.573333 739.953778 299.573333ZM512 299.573333C480.796444 299.573333 455.509333 325.088 455.509333 356.604444 455.509333 388.120889 480.796444 413.664 512 413.664 543.203556 413.664 568.490667 388.120889 568.490667 356.604444 568.490667 325.088 543.203556 299.573333 512 299.573333ZM284.046222 299.573333C252.586667 299.573333 227.072 325.088 227.072 356.604444 227.072 388.120889 252.586667 413.664 284.046222 413.664 315.505778 413.664 341.020444 388.120889 341.020444 356.604444 341.020444 325.088 315.505778 299.573333 284.046222 299.573333Z"  horiz-adv-x="1024" />


    <glyph glyph-name="wenzi" unicode="&#58952;" d="M917.853659 896L106.146341 896c-31.219512 0-62.439024-31.219512-62.439024-62.439024s31.219512-62.439024 62.439024-62.439024L449.560976 771.121951l0-836.682927c0-37.463415 31.219512-62.439024 62.439024-62.439024 37.463415 0 62.439024 24.97561 62.439024 62.439024L574.439024 771.121951l343.414634 0c31.219512 0 62.439024 31.219512 62.439024 62.439024S949.073171 896 917.853659 896z"  horiz-adv-x="1024" />


    <glyph glyph-name="hetongfanwen" unicode="&#59220;" d="M688.856321 478.625341c-140.291734 0-258.430797-114.497428-258.430797-258.542698 0-144.046486 114.448776-258.543914 258.430797-258.543914 143.986887 0 258.435663 114.497428 258.435663 258.543914C950.983487 364.129129 832.843208 478.625341 688.856321 478.625341L688.856321 478.625341zM688.853888 15.564827c-112.630391 0-204.144408 91.494556-204.144408 204.10427 0 112.606065 91.512801 204.100621 204.144408 204.100621s204.144408-91.494556 204.144408-204.100621C892.998297 107.060599 801.484279 15.564827 688.853888 15.564827L688.853888 15.564827zM212.831149 641.340983l380.974123 0 0-54.181786L212.831149 587.159197l3.393507 38.853836L212.831149 641.340983 212.831149 641.340983zM212.826284 505.261333l298.994767 0 0-54.184219L212.826284 451.077115 212.826284 505.261333 212.826284 505.261333zM212.812904 342.157688l135.905717 0 0-54.181786L212.812904 287.975902l3.411752 16.753467L212.812904 342.157688 212.812904 342.157688zM397.621618 15.932153 131.047619 15.932153 131.047619 750.500023l598.538089 0 0.957237-208.45988c14.696685 0 38.557056-3.651365 53.104135-3.651365L783.64708 775.701985c0 14.604245-14.547079 29.20849-29.09659 29.20849L106.014724 804.910475C91.318039 804.910475 76.623787 790.30623 76.623787 775.701985l0-784.592305c0-14.838993 14.590866-29.670689 29.181732-29.670689l324.617572 0c-14.588433 18.543876-16.291268 39.892566-27.313478 54.494378L397.621618 15.932153 397.621618 15.932153 397.621618 15.932153zM837.082051 264.566782c-3.675692 10.95288-11.023426 14.604245-22.043203 18.255611l-69.800435 10.95288-33.06298 62.065914c-7.348951 18.255611-36.737455 18.255611-47.758448 0l-33.064196-62.065914-69.800435-10.95288c-11.02221 0-18.368728-7.301514-22.041986-18.255611-3.673259-10.949231 0-18.251962 7.347734-25.553476l51.430491-47.465317-7.348951-73.017577c0-10.954096 3.675692-18.255611 11.024642-25.558341 7.345302-7.301514 18.366295-7.301514 29.387288-3.647716l62.4527 32.857423 62.453917-32.857423c3.673259-3.653798 7.346518-3.653798 11.02221-3.653798 7.345302 0 11.018561 3.653798 14.694252 3.653798 7.345302 7.299082 11.020993 14.600596 11.020993 25.554692l-11.020993 69.366212 51.430491 47.461668C837.082051 242.664671 837.082051 253.617551 837.082051 264.566782L837.082051 264.566782zM730.541729 213.454964c-7.345302-7.301514-7.345302-14.604245-7.345302-21.90576l3.673259-32.859856-25.715245 18.255611c-3.675692 3.651365-7.348951 3.651365-11.02221 3.651365-3.673259 0-7.348951 0-11.020993-3.651365l-29.390937-14.604245 3.674475 29.20849c0 7.301514 0 18.255611-7.347734 21.90576l-22.043203 21.904543 33.064196 3.653798c7.348951 0 14.694252 7.301514 18.368728 14.604245l14.694252 29.204841 14.694252-29.204841c3.675692-7.301514 11.020993-10.95288 18.368728-14.604245l33.064196-3.653798L730.541729 213.454964 730.541729 213.454964z"  horiz-adv-x="1024" />


    <glyph glyph-name="chexiao" unicode="&#59457;" d="M981.079468-63.012893 981.079468-63.012893c-16.744359 0-31.959899 9.914814-41.658795 27.250644C790.473339 230.267687 535.324218 247.854227 447.863261 245.672538l0-194.253192c0-20.142759-2.994194-35.047214-9.230222-46.895053-9.166777-17.21201-25.818015-27.501354-44.587498-27.501354-24.133653 0-42.717917 16.649192-50.573839 24.88169L40.151465 344.139154c-6.360871 6.173606-38.289048 39.068807-38.289048 77.732385 0 36.917818 25.692149 68.470441 31.866778 75.487252l302.948777 322.904271 7.170307 3.086291c30.931476 13.251815 57.746192 8.886391 74.458829-9.759271 14.467503-16.183588 14.716166-36.668131 13.967106-45.834908l0-160.359244c539.576055-21.919219 586.004481-520.429996 589.807087-622.203938 0.155543-5.611811 0.810459-22.947641-12.285814-36.231179l-12.877285-11.973706L981.079468-63.012893M460.46016 318.945355 460.46016 318.945355c94.788853 0 311.118853-23.198352 472.414423-214.9557-35.671431 174.671205-153.563468 431.098435-537.892717 431.098435l-37.292348 0 0.188288 199.833281L89.663112 449.122183c-5.550413-6.610558-13.221116-19.705807-13.221116-27.250644 0-4.865821 8.231475-17.96107 18.08489-27.78174l278.753725-314.484508L373.280612 311.461917l31.990598 4.491291C406.207535 316.077028 427.03591 318.945355 460.46016 318.945355M460.46016 318.945355 460.46016 318.945355z"  horiz-adv-x="1024" />


    <glyph glyph-name="morentouxiang1" unicode="&#58902;" d="M512-50.858667c-239.616 0-434.858667 195.242667-434.858667 434.858667S272.384 818.858667 512 818.858667s434.858667-195.242667 434.858667-434.858667-195.242667-434.858667-434.858667-434.858667z m0 828.757334c-217.088 0-393.898667-176.810667-393.898667-393.898667 0-217.088 176.810667-393.898667 393.898667-393.898667 217.088 0 393.898667 176.810667 393.898667 393.898667 0 217.088-176.810667 393.898667-393.898667 393.898667zM509.952 280.917333c-106.496 0-193.194667 86.698667-193.194667 193.194667s86.698667 193.194667 193.194667 193.194667c106.496 0 193.194667-86.698667 193.194667-193.194667S616.448 280.917333 509.952 280.917333z m0 345.429334c-83.968 0-152.234667-68.266667-152.234667-152.234667s68.266667-152.234667 152.234667-152.234667S662.186667 390.144 662.186667 474.112 593.92 626.346667 509.952 626.346667zM512-50.858667c-111.957333 0-219.136 43.008-300.373333 120.149334l-8.874667 8.192 3.413333 11.605333c37.546667 136.533333 162.474667 232.106667 303.786667 232.106667 143.36 0 268.288-96.938667 304.469333-234.837334l2.730667-11.605333-8.874667-8.192c-79.872-75.776-185.002667-117.418667-296.277333-117.418667zM249.173333 90.453333c72.362667-64.853333 165.205333-100.352 262.826667-100.352 96.256 0 187.733333 34.816 259.413333 98.304-34.816 114.005333-140.629333 192.512-261.461333 192.512-118.784 0-224.597333-77.824-260.778667-190.464z"  horiz-adv-x="1024" />


    <glyph glyph-name="duigou" unicode="&#59654;" d="M1438.057963 814.224402A127.092908 127.092908 0 0 1 1259.003476 828.364766L491.249868 174.415531l-243.878684 257.252402A127.092908 127.092908 0 1 1 62.779808 256.78741l326.846843-344.990804a126.752177 126.752177 0 0 1 174.710158-9.199755l859.495607 732.232333a127.348457 127.348457 0 0 1 14.225547 179.310035z"  horiz-adv-x="1533" />


    <glyph glyph-name="jichu" unicode="&#58881;" d="M888.32 488.448c-8.704 30.72-20.992 59.904-36.864 87.552 17.92 24.064 79.872 114.688 35.328 158.72l-23.04 24.064c-37.888 37.888-135.168-20.992-158.72-36.352-28.16 15.872-58.368 28.672-89.6 36.864-5.12 30.72-26.624 136.192-89.6 136.192h-25.088C448 896 416.256 786.432 409.088 759.808c-31.232-8.704-60.928-20.992-89.088-36.864C298.496 738.816 205.312 803.328 159.232 758.272l-24.064-20.48c-39.424-39.424 26.112-143.872 38.4-162.304-15.36-27.648-27.648-56.832-35.84-87.04-25.6-3.584-137.728-25.6-137.728-90.112v-25.088c0-55.808 117.76-87.04 138.752-92.16 8.192-30.72 20.48-60.416 36.352-88.064-12.8-19.968-76.288-123.904-36.352-163.328l23.04-18.944c51.2-49.152 158.208 35.328 158.208 35.328l-5.12 5.12c28.672-17.408 59.904-30.72 92.16-39.424 5.12-21.504 36.352-138.752 92.16-138.752h25.088c72.704 0 90.624 136.192 90.624 136.192h-6.144c33.28 8.704 65.536 21.504 95.232 38.4 23.04-15.36 118.272-74.752 156.672-36.864l25.6 25.6c51.2 51.2-31.744 154.624-34.304 158.208 15.872 27.648 28.672 57.344 36.864 88.064 27.648 7.168 135.168 38.912 135.168 91.648V399.36c0 69.632-128 88.064-135.68 89.088z m-376.32-392.192c-158.72 0-287.744 129.024-287.744 287.744s129.024 287.744 287.744 287.744S799.744 542.72 799.744 384s-128.512-287.744-287.744-287.744z m0 479.744c-105.984 0-192-86.016-192-192s86.016-192 192-192 192 86.016 192 192-86.016 192-192 192z m0-287.744c-52.736 0-95.744 43.008-95.744 95.744s43.008 95.744 95.744 95.744 95.744-43.008 95.744-95.744c0.512-52.736-42.496-95.744-95.744-95.744z"  horiz-adv-x="1024" />


    <glyph glyph-name="chahao" unicode="&#58888;" d="M934.383 71.653c30.594-30.65 30.594-80.315-0.056-110.965-15.27-15.325-35.362-22.99-55.453-22.99-20.095 0-40.188 7.665-55.513 22.99L510.214 273.845 197.066-39.312c-15.325-15.325-35.417-22.99-55.512-22.99-20.093 0-40.184 7.665-55.453 22.99-30.65 30.65-30.65 80.315-0.056 110.965l313.177 313.19-313.177 313.19C55.45 728.683 55.45 778.348 86.1 809c30.537 30.652 80.315 30.652 110.965 0L510.214 495.84 823.361 809c30.65 30.652 80.428 30.652 110.966 0 30.65-30.65 30.65-80.316 0.056-110.966l-313.178-313.19 313.178-313.19z"  horiz-adv-x="1024" />


    <glyph glyph-name="tupian" unicode="&#58935;" d="M212.385 70.514c1.69-0.024 3.407-0.04 5.17-0.04l-5.17 0.04z m-0.011 667.356l5.181 0.04c-1.767 0-3.487-0.015-5.181-0.04z m585.015 0c-1.694 0.024-3.415 0.04-5.182 0.04l5.182-0.04z m0.419-668.351l-5.171-0.04c1.763 0 3.48 0.015 5.171 0.04z m161.119 621.68v47.659c0 50.503-33.946 91.836-76.878 95.143l-758.055-0.385c-41.163-5.338-73.16-45.727-73.16-94.758v-47.659h-0.222l0.308-625.45c1.886-49.756 36.771-89.618 79.985-91.032l702.216-0.065v0.023h43.803c42.619 0 77.687 37.413 81.987 85.375l0.399 631.149h-0.383z m-82.514-589.088l-0.681 31.763 0.665-0.77 0.016-30.993zM134.047 693.025l1.074-50.464c0 74.563 11.832 94.356 77.252 95.309l-78.282-0.605 0.001 0.994 742.008 0.391 0.001-1.389-78.713 0.609c65.432-0.952 77.251-20.746 77.251-95.309l1.475 68.831 0.229-465.66-97.11 112.334c-3.342 4.893-7.167 9.317-11.396 13.183l-0.366 0.424c-4.279 4.951-9.405 8.322-14.838 10.118-8.396 4.222-17.654 6.576-27.393 6.576s-18.998-2.354-27.394-6.576c-5.433-1.796-10.559-5.167-14.838-10.118l-0.368-0.426c-4.231-3.867-8.058-8.295-11.4-13.19l-66.784-77.27c-0.391 0.362-0.779 0.724-1.169 1.084-5.821-12.412-17.187-20.842-30.256-20.842-13.233 0-24.712 8.646-30.465 21.313l-0.787-0.75-176.172 203.807c-3.343 4.896-7.17 9.323-11.401 13.19l-0.365 0.422c-4.279 4.955-9.408 8.329-14.846 10.123-8.394 4.219-17.65 6.572-27.385 6.572-9.741 0-19.001-2.355-27.398-6.579-5.431-1.796-10.555-5.167-14.833-10.116l-0.365-0.422c-4.231-3.867-8.059-8.294-11.401-13.19L133.696 342.044l0.351 350.981z m-0.624-623.468l0.001 1.566 78.96-0.609c-65.43 0.95-77.263 20.741-77.263 95.308l-1.682-78.994 0.143 142.531 146.526 169.51 1.035-0.987c5.753 12.678 17.232 21.326 30.466 21.326 13.071 0 24.436-8.431 30.257-20.854l0.938 0.87 174.739-202.15c12.52-19.736 32.704-32.558 55.486-32.558 11.793 0 22.889 3.438 32.589 9.487 4.134 1.941 8.009 4.851 11.362 8.73l0.973 1.125a75.705 75.705 0 0 1 7.144 8.265l68.641 79.407 1.036-0.988c5.753 12.673 17.231 21.312 30.465 21.312 13.069 0 24.435-8.422 30.256-20.839l0.945 0.876 117.747-136.229c-3.694-50.753-20.457-65.332-76.38-66.144l78.621 0.607 0.001-1.395-743.006 0.827z m481.744 382.464c53.195 0 96.313 49.896 96.313 111.436 0 61.524-43.118 111.421-96.313 111.421-53.194 0-96.313-49.896-96.313-111.421 0-61.539 43.119-111.436 96.313-111.436z m0 175.603c30.394 0 55.036-28.508 55.036-63.669 0-35.177-24.643-63.669-55.036-63.669s-55.035 28.492-55.035 63.669c0 35.161 24.641 63.669 55.035 63.669z"  horiz-adv-x="1024" />


    <glyph glyph-name="square-line" unicode="&#58882;" d="M938.664 810.664v-853.336H85.336V810.664h853.328M981.336 896H42.664C19.2 896 0 876.8 0 853.336v-938.664C0-108.81600000000003 19.2-128 42.664-128h938.664c23.472 0 42.664 19.184 42.664 42.664V853.336C1024 876.8 1004.816 896 981.336 896z"  horiz-adv-x="1024" />


    <glyph glyph-name="quanxian" unicode="&#59278;" d="M910.848 851.456h5.12L530.432 896h-29.696L108.544 851.456h5.12c-27.136-5.12-49.152-27.136-49.152-56.832v-356.864s36.864-443.904 446.976-565.248h5.12c377.856 111.616 436.736 500.736 444.416 558.08v373.76c-3.584 27.136-23.04 47.104-50.176 47.104z m-187.904-364.544L476.16 239.104c-2.56-2.56-7.68-5.12-9.728-7.68-9.728-5.12-24.576-2.56-32.256 7.68l-138.24 138.752c-12.288 12.288-12.288 29.696 0 41.984s29.696 12.288 41.984 0l116.224-116.736 224.768 225.792c12.288 12.288 29.696 12.288 41.984 0 14.336-9.728 14.336-29.696 2.048-41.984z"  horiz-adv-x="1024" />


    <glyph glyph-name="dianming" unicode="&#58977;" d="M768 640c0 140.8-115.2 256-256 256S256 780.8 256 640c0-89.6 44.8-166.4 108.8-211.2C153.6 371.20000000000005 0 192 0-32c0-19.2 12.8-32 32-32s32 12.8 32 32C64 198.39999999999998 256 384 505.6 384H512c140.8 0 256 115.2 256 256zM320 640c0 108.8 83.2 192 192 192s192-83.2 192-192c0-102.4-83.2-192-192-192h-6.4C403.2 448 320 537.6 320 640zM716.8-76.79999999999995l-166.4 166.4c-12.8 12.8-12.8 32 0 44.8s32 12.8 44.8 0l121.6-121.6 217.6 217.6c12.8 12.8 32 12.8 44.8 0s12.8-32 0-44.8l-262.4-262.4z"  horiz-adv-x="1024" />


    <glyph glyph-name="caidan" unicode="&#58880;" d="M59.969829 692.0192h96.795794c19.520366 0 35.351406 19.944594 35.351406 44.624457V824.36096c0 24.6784-15.83104 44.643474-35.351406 44.643474H59.969829c-19.559863 0-35.352869-19.965074-35.352869-44.643474v-87.717303c0-24.679863 15.794469-44.624457 35.352869-44.624457z m96.864548-215.442286H60.032731c-19.621303 0-35.345554-19.965074-35.345554-44.643474v-87.724617c0-24.631589 15.724251-44.596663 35.345554-44.596663h96.801646c19.451611 0 35.347017 19.965074 35.347017 44.596663v87.724617c0.005851 24.671086-15.895406 44.643474-35.347017 44.643474z m0-397.051611H60.032731c-19.621303 0-35.345554-19.985554-35.345554-44.643474v-92.3648c0-24.650606 15.724251-44.643474 35.345554-44.643475h96.801646c19.451611 0 35.347017 19.992869 35.347017 44.643475v92.3648c0.005851 24.650606-15.895406 44.643474-35.347017 44.643474zM334.570057 692.0192h628.892526c19.489646 0 35.383589 19.944594 35.383588 44.624457V824.36096c0 24.6784-15.893943 44.643474-35.383588 44.643474H334.570057c-19.590583 0-35.314834-19.965074-35.314834-44.643474v-87.717303c0-24.679863 15.724251-44.624457 35.314834-44.624457z m628.892526-215.442286H334.570057c-19.521829 0-35.314834-19.965074-35.314834-44.643474v-87.724617c0-24.631589 15.793006-44.596663 35.314834-44.596663h628.892526c19.584731 0 35.383589 19.965074 35.383588 44.596663v87.724617c0 24.671086-15.793006 44.643474-35.383588 44.643474z m0-397.051611H334.570057c-19.521829 0-35.314834-19.985554-35.314834-44.643474v-92.3648c0-24.650606 15.793006-44.643474 35.314834-44.643475h628.892526c19.584731 0 35.383589 19.992869 35.383588 44.643475v92.3648c0 24.650606-15.793006 44.643474-35.383588 44.643474z m0 0"  horiz-adv-x="1024" />


    <glyph glyph-name="xiangpica" unicode="&#58891;" d="M986.73661 576.037596L709.009243 855.684737A127.984962 127.984962 0 0 1 616.220146 896a161.261052 161.261052 0 0 1-113.266691-51.193985L49.246765 389.179551A163.820751 163.820751 0 0 1 0.61248 287.431507a133.10436 133.10436 0 0 1 37.115639-105.587594l277.727367-279.007216a109.427142 109.427142 0 0 1 81.270451-30.716391 206.695713 206.695713 0 0 1 127.984961 39.675338l454.346615 455.626464A163.820751 163.820751 0 0 1 1024.492174 471.729852 133.10436 133.10436 0 0 1 986.73661 576.037596zM384.567365-55.568190999999956h-8.319022l-299.484811 300.76466a30.076466 30.076466 0 0 0-7.039173 23.677218 63.992481 63.992481 0 0 0 19.197745 38.395489L162.513457 384.060153 512.552327 27.622033999999985l-70.391729-70.391729a161.261052 161.261052 0 0 0-58.233158-12.158571z m568.893155 544.576013a63.992481 63.992481 0 0 0-19.197744-38.395489l-362.197442-365.397066-352.598569 353.878419 364.117216 365.397066a63.992481 63.992481 0 0 0 41.595112 19.197745 28.156692 28.156692 0 0 0 19.837669-7.039173L948.341122 512.045115a30.716391 30.716391 0 0 0 7.039173-23.677218z m0 0"  horiz-adv-x="1025" />


    <glyph glyph-name="jiaocaiguanli" unicode="&#58994;" d="M919.744 775.936c-21.44 0-34.88-12.224-34.88-31.808v-737.344c0-31.872-34.88-63.68-69.76-63.68H214.272c-40.256 0-88.576 31.808-88.576 63.68v70.976c0 31.872 40.256 51.456 83.136 51.456h576.704c21.568 0 34.944 12.224 34.944 31.872V780.864C820.48 851.904 766.848 896 683.712 896H214.272C139.072 896 64 856.832 64 780.864v-801.088c8.064-56.384 69.76-102.912 131.456-107.776h627.648C898.304-128 960-71.68 960-8V744.128c-5.376 12.224-18.816 31.808-40.256 31.808z m-128.768-712.896H227.648c-21.44 0-34.88-12.224-34.88-31.808 0-19.712 13.376-31.872 34.88-31.872h563.328c21.504 0 34.816 12.16 34.816 31.872 0 19.584-13.312 31.808-34.816 31.808z"  horiz-adv-x="1024" />


    <glyph glyph-name="mima" unicode="&#59089;" d="M332.8 532.48c0 98.986667 80.213333 179.2 179.2 179.2s179.2-80.213333 179.2-179.2c0-20.48-5.12-40.96-10.24-59.733333h129.706667v59.733333c0 165.546667-133.12 298.666667-298.666667 298.666667s-298.666667-133.12-298.666667-298.666667v-59.733333h129.706667c-5.12 18.773333-10.24 39.253333-10.24 59.733333z m506.88 0H184.32c-66.56 0-119.466667-52.906667-119.466667-119.466667v-358.4c0-66.56 52.906667-119.466667 119.466667-119.466666h657.066667c66.56 0 119.466667 52.906667 119.466666 119.466666v358.4c-1.706667 66.56-54.613333 119.466667-121.173333 119.466667z m-267.946667-341.333333v-76.8c0-32.426667-27.306667-59.733333-59.733333-59.733334s-59.733333 27.306667-59.733333 59.733334v76.8c-35.84 20.48-59.733333 58.026667-59.733334 102.4 0 66.56 52.906667 119.466667 119.466667 119.466666s119.466667-52.906667 119.466667-119.466666c0-44.373333-23.893333-81.92-59.733334-102.4z"  horiz-adv-x="1024" />


    <glyph glyph-name="big-circle" unicode="&#58898;" d="M512-54.85714299999995c241.371429 0 438.857143 197.485714 438.857143 438.857143s-197.485714 438.857143-438.857143 438.857143-438.857143-197.485714-438.857143-438.857143 197.485714-438.857143 438.857143-438.857143z m0-73.142857c-285.257143 0-512 226.742857-512 512s226.742857 512 512 512 512-226.742857 512-512-226.742857-512-512-512z"  horiz-adv-x="1024" />


    <glyph glyph-name="yonghu" unicode="&#59021;" d="M318.016 376.448a202.112 202.112 0 0 0-119.168 186.304 205.184 205.184 0 1 0 410.368 0 202.368 202.368 0 0 0-118.72-186.112A404.928 404.928 0 0 0 808.32 0.512L0 0c11.2 182.784 143.68 337.472 318.016 376.448zM574.592 744.256a251.2 251.2 0 0 0 76.672-180.992 251.008 251.008 0 0 0-66.176-170.176 442.496 442.496 0 0 0 256.128-307.264l182.784 0.128a360 360 0 0 1-282.496 334.336 179.776 179.776 0 0 1 105.472 165.376 182.4 182.4 0 0 1-274.432 157.44"  horiz-adv-x="1024" />


    <glyph glyph-name="huitu" unicode="&#58887;" d="M63.587982 863.954444a64.981267 64.981267 0 0 1-2.12863-1.122369l1.509392-0.077405 0.619238 1.161071z m905.093454-20.783169l-0.619238-2.244737h0.309619l0.309619 2.244737z m-132.284676-363.802209h-11.107578v-0.038703h26.975547l0.193512 0.038703h-16.061481z m135.45827-114.442887l-0.270917-0.116107 0.232214-0.464428a375.490323 239.258006 90 0 1 0.038703 0.580535z m-839.957378-285.236413c-32.626092 0-79.107629-50.506583-79.107629-50.506583s1.277178-79.030225 0-107.28295c26.356309 0 41.488933 58.517972 77.907856 58.517973 36.418923 0 55.344379-58.517972 104.264165-58.517973 48.958489 0 42.766111 58.517972 81.661985 58.517973 38.934577 0 40.250457-58.517972 99.232858-58.517973 59.021103 0 47.681311 58.517972 89.325053 58.517973 41.643742 0 29.994331-58.517972 94.046742-58.517973 64.091113 0 70.399598 72.373418 94.278955 72.373419s54.028498-72.373418 94.201551-72.373419c40.211755 0 75.430905 58.517972 95.517431 58.517973 20.125229 0 62.813935-74.115025 87.97047-55.576593a375.490323 239.258006 90 0 1 0 94.240253c-27.672189 0-44.004586 60.6079-94.240253 60.6079s-56.50545-60.6079-87.97047-60.6079c-31.426319 0-31.426319 60.6079-97.994382 60.6079s-45.281764-60.6079-86.693293-60.6079c-41.411528 0-43.888479 60.6079-99.039346 60.6079-55.150867 0-55.383081-60.6079-90.563529-60.6079-35.21915 0-40.250457 60.6079-95.556133 60.6079-55.344379 0-66.568064-60.6079-95.517431-60.6079s-30.149141 57.279497-91.7246 60.6079z"  horiz-adv-x="1024" />


    <glyph glyph-name="wujiantouzhixian" unicode="&#58972;" d="M64-128l-64 64L960 896l64-64z"  horiz-adv-x="1024" />


    <glyph glyph-name="huabi" unicode="&#59252;" d="M739.555556 839.111111L56.888889 156.444444v-227.555555h227.555555L967.111111 611.555556l-227.555555 227.555555z m147.911111-227.555555l-79.644445-79.644445-147.911111 147.911111L739.555556 759.466667 887.466667 611.555556zM113.777778-14.222222v147.911111l506.311111 506.311111 147.911111-147.911111L261.688889-14.222222H113.777778z"  horiz-adv-x="1024" />


    <glyph glyph-name="shouxie-xiangpi" unicode="&#58884;" d="M996.072727 505.018182L651.636364 849.454545C621.381818 879.709091 567.854545 879.709091 537.6 849.454545L151.272727 463.127273l-123.345454-123.345455c-16.290909-16.290909-23.272727-34.909091-23.272728-58.181818 0-20.945455 9.309091-41.890909 23.272728-58.181818l279.272727-279.272727c34.909091-34.909091 79.127273-51.2 123.345455-51.2s88.436364 16.290909 123.345454 51.2l58.181818 58.181818 386.327273 386.327272c16.290909 16.290909 23.272727 34.909091 23.272727 58.181819-2.327273 20.945455-9.309091 41.890909-25.6 58.181818zM505.018182-4.654545c-41.890909-41.890909-107.054545-41.890909-148.945455 0l-279.272727 279.272727c-2.327273 2.327273-2.327273 6.981818-2.327273 9.309091s0 4.654545 2.327273 9.309091l97.745455 97.745454L535.272727 30.254545l-30.254545-34.90909z m442.181818 444.50909L586.472727 79.127273l-181.527272 181.527272-181.527273 181.527273L586.472727 800.581818c4.654545 4.654545 11.636364 4.654545 16.290909 0l344.436364-344.436363c2.327273-2.327273 2.327273-6.981818 2.327273-9.309091s0-4.654545-2.327273-6.981819z"  horiz-adv-x="1024" />


    <glyph glyph-name="shanchu" unicode="&#58950;" d="M519.67 895.99999C415.134001 895.99999 330.077002 813.057991 326.493002 709.123992H82.587004a49.195 49.195 0 0 1-49.195999-49.15 49.195 49.195 0 0 1 49.195999-49.151999h54.315v-550.899995c0-103.421999 70.209999-187.899998 156.801998-187.899998h441.689996c86.593999 0 156.802998 83.965999 156.802998 187.899998V610.309993h49.195a49.195 49.195 0 0 1 49.195999 49.150999 49.195 49.195 0 0 1-49.195999 49.151H712.332998A192.663998 192.663998 0 0 1 519.692 895.99999zM411.817001 717.916992c3.562 50.064 46.902 89.040999 100.415999 89.040999 53.536999 0 96.877999-38.977 99.926999-89.040999H411.818001zM299.180002-38.424001c-31.164 0-65.444999 39.356-65.444999 95.585999V606.614993h578.769994V56.649998c0-56.229999-34.281-95.585999-65.445999-95.585999H299.180002v0.512zM367.297001 94.625998c24.487 0 44.52 21.815 44.52 49.106999V423.945995c0 27.291-20.033 49.107-44.52 49.106999s-44.52-21.816-44.519999-49.106999v-280.212998c0-27.292 19.477-49.107 44.519999-49.106999z m155.822999 0c24.486 0 44.52 21.815 44.519999 49.106999V423.945995c0 27.291-20.034 49.107-44.519999 49.106999s-44.521-21.816-44.521-49.106999v-280.212998c0-27.292 20.034-49.107 44.52-49.106999z m133.561999 0c24.487 0 44.52 21.815 44.519999 49.106999V423.945995c0 27.291-20.033 49.107-44.519999 49.106999s-44.52-21.816-44.52-49.106999v-280.212998c0-27.292 19.477-49.107 44.52-49.106999z"  horiz-adv-x="1024" />


    <glyph glyph-name="jiaose" unicode="&#58949;" d="M480 672m-224 0a224 224 0 1 1 448 0 224 224 0 1 1-448 0ZM448-64H0c0 243.2 153.6 345.6 192 358.4C256 313.6 288 320 416 320H448c-38.4-51.2-64-121.6-64-192s25.6-140.8 64-192zM934.4 217.6l38.4 70.4-44.8 44.8-70.4-32c-6.4 6.4-19.2 6.4-38.4 12.8L800 384h-64l-25.6-70.4c-12.8-6.4-25.6-6.4-32-12.8l-64 32-51.2-44.8 38.4-70.4c-6.4-6.4-12.8-19.2-12.8-32l-76.8-25.6v-64l70.4-25.6c6.4-12.8 12.8-25.6 12.8-38.4l-38.4-70.4 44.8-44.8 70.4 38.4c6.4-6.4 19.2-12.8 38.4-12.8l25.6-70.4h64l25.6 70.4c12.8 6.4 25.6 12.8 38.4 12.8l70.4-38.4 44.8 44.8-38.4 70.4c6.4 6.4 12.8 19.2 12.8 38.4l70.4 25.6v64l-70.4 25.6c-6.4 12.8-6.4 25.6-19.2 32z m-166.4-192c-57.6 0-96 44.8-96 96 0 57.6 38.4 96 96 96s96-38.4 96-96c0-51.2-38.4-96-96-96z"  horiz-adv-x="1024" />




  </font>
</defs>
</svg>
